<mxfile host="app.diagrams.net" modified="2024-02-02T21:30:37.857Z" agent="Mozilla/5.0 (Windows NT 10.0; Win64; x64) AppleWebKit/537.36 (KHTML, like Gecko) Chrome/120.0.0.0 Safari/537.36" etag="a69ukY8E06rAswcmX10f" version="23.1.1" type="device">
  <diagram name="Page-1" id="C0hqogFzxGWnp2ZR-3Hl">
    <mxGraphModel dx="2049" dy="1103" grid="1" gridSize="10" guides="1" tooltips="1" connect="1" arrows="1" fold="1" page="1" pageScale="1" pageWidth="850" pageHeight="1100" math="0" shadow="0">
      <root>
        <mxCell id="0" />
        <mxCell id="1" parent="0" />
        <mxCell id="BpjemMMK_G_cXn7MYBE9-2" value="" style="rounded=1;whiteSpace=wrap;html=1;hachureGap=4;fontFamily=Architects Daughter;fontSource=https%3A%2F%2Ffonts.googleapis.com%2Fcss%3Ffamily%3DArchitects%2BDaughter;fontSize=20;sketch=1;curveFitting=1;jiggle=2;labelBackgroundColor=none;fillColor=#5D7F99;strokeColor=#D0CEE2;fontColor=#1A1A1A;" vertex="1" parent="1">
          <mxGeometry x="745" y="255.32999999999998" width="540" height="728" as="geometry" />
        </mxCell>
        <mxCell id="BpjemMMK_G_cXn7MYBE9-4" value="&lt;p align=&quot;center&quot; class=&quot;MsoNormal&quot;&gt;&lt;b&gt;&lt;font style=&quot;font-size: 23px;&quot;&gt;“An Intelligent Approach for Oral Cancer Diagnosis”&lt;/font&gt;&lt;/b&gt;&lt;b&gt;&lt;span style=&quot;font-size:22.0pt;&lt;br/&gt;font-family:&amp;quot;Tahoma&amp;quot;,sans-serif;mso-ascii-font-family:&amp;quot;Century Gothic&amp;quot;;&lt;br/&gt;mso-ascii-theme-font:minor-latin;mso-hansi-font-family:&amp;quot;Century Gothic&amp;quot;;&lt;br/&gt;mso-hansi-theme-font:minor-latin;mso-bidi-theme-font:minor-bidi;color:#002060&quot; dir=&quot;RTL&quot; lang=&quot;AR-SA&quot;&gt;&lt;/span&gt;&lt;/b&gt;&lt;/p&gt;" style="text;html=1;align=center;verticalAlign=middle;resizable=0;points=[];autosize=1;strokeColor=none;fillColor=none;fontSize=20;fontFamily=Architects Daughter;fontColor=#1A1A1A;" vertex="1" parent="1">
          <mxGeometry x="730" y="200" width="570" height="90" as="geometry" />
        </mxCell>
        <mxCell id="BpjemMMK_G_cXn7MYBE9-34" style="edgeStyle=orthogonalEdgeStyle;rounded=0;sketch=1;hachureGap=4;jiggle=2;curveFitting=1;orthogonalLoop=1;jettySize=auto;html=1;entryX=0;entryY=0.5;entryDx=0;entryDy=0;strokeColor=#736CA8;fontFamily=Architects Daughter;fontSource=https%3A%2F%2Ffonts.googleapis.com%2Fcss%3Ffamily%3DArchitects%2BDaughter;fontSize=16;fontColor=#1A1A1A;endArrow=none;endFill=0;" edge="1" parent="1" source="BpjemMMK_G_cXn7MYBE9-7" target="BpjemMMK_G_cXn7MYBE9-16">
          <mxGeometry relative="1" as="geometry" />
        </mxCell>
        <mxCell id="BpjemMMK_G_cXn7MYBE9-35" style="edgeStyle=orthogonalEdgeStyle;rounded=0;sketch=1;hachureGap=4;jiggle=2;curveFitting=1;orthogonalLoop=1;jettySize=auto;html=1;strokeColor=#736CA8;fontFamily=Architects Daughter;fontSource=https%3A%2F%2Ffonts.googleapis.com%2Fcss%3Ffamily%3DArchitects%2BDaughter;fontSize=16;fontColor=#1A1A1A;endArrow=none;endFill=0;" edge="1" parent="1" source="BpjemMMK_G_cXn7MYBE9-7" target="BpjemMMK_G_cXn7MYBE9-27">
          <mxGeometry relative="1" as="geometry" />
        </mxCell>
        <mxCell id="BpjemMMK_G_cXn7MYBE9-36" style="edgeStyle=orthogonalEdgeStyle;rounded=0;sketch=1;hachureGap=4;jiggle=2;curveFitting=1;orthogonalLoop=1;jettySize=auto;html=1;exitX=0.5;exitY=0.5;exitDx=0;exitDy=0;exitPerimeter=0;strokeColor=#736CA8;fontFamily=Architects Daughter;fontSource=https%3A%2F%2Ffonts.googleapis.com%2Fcss%3Ffamily%3DArchitects%2BDaughter;fontSize=16;fontColor=#1A1A1A;endArrow=none;endFill=0;" edge="1" parent="1" source="BpjemMMK_G_cXn7MYBE9-7" target="BpjemMMK_G_cXn7MYBE9-30">
          <mxGeometry relative="1" as="geometry" />
        </mxCell>
        <mxCell id="BpjemMMK_G_cXn7MYBE9-37" style="edgeStyle=orthogonalEdgeStyle;rounded=0;sketch=1;hachureGap=4;jiggle=2;curveFitting=1;orthogonalLoop=1;jettySize=auto;html=1;exitX=0.5;exitY=0.5;exitDx=0;exitDy=0;exitPerimeter=0;entryX=0;entryY=0.5;entryDx=0;entryDy=0;strokeColor=#736CA8;fontFamily=Architects Daughter;fontSource=https%3A%2F%2Ffonts.googleapis.com%2Fcss%3Ffamily%3DArchitects%2BDaughter;fontSize=16;fontColor=#1A1A1A;endArrow=none;endFill=0;" edge="1" parent="1" source="BpjemMMK_G_cXn7MYBE9-7" target="BpjemMMK_G_cXn7MYBE9-28">
          <mxGeometry relative="1" as="geometry" />
        </mxCell>
        <mxCell id="BpjemMMK_G_cXn7MYBE9-7" value="User" style="shape=umlActor;verticalLabelPosition=bottom;verticalAlign=top;html=1;outlineConnect=0;sketch=1;hachureGap=4;jiggle=2;curveFitting=1;strokeColor=#D0CEE2;fontFamily=Architects Daughter;fontSource=https%3A%2F%2Ffonts.googleapis.com%2Fcss%3Ffamily%3DArchitects%2BDaughter;fontSize=20;fontColor=#1A1A1A;fillColor=#5D7F99;" vertex="1" parent="1">
          <mxGeometry x="630" y="539.3299999999999" width="90" height="160" as="geometry" />
        </mxCell>
        <mxCell id="BpjemMMK_G_cXn7MYBE9-45" style="edgeStyle=orthogonalEdgeStyle;rounded=0;sketch=1;hachureGap=4;jiggle=2;curveFitting=1;orthogonalLoop=1;jettySize=auto;html=1;exitX=1;exitY=0.5;exitDx=0;exitDy=0;strokeColor=#736CA8;fontFamily=Architects Daughter;fontSource=https%3A%2F%2Ffonts.googleapis.com%2Fcss%3Ffamily%3DArchitects%2BDaughter;fontSize=16;fontColor=#1A1A1A;dashed=1;dashPattern=8 8;" edge="1" parent="1" source="BpjemMMK_G_cXn7MYBE9-16" target="BpjemMMK_G_cXn7MYBE9-43">
          <mxGeometry relative="1" as="geometry">
            <Array as="points">
              <mxPoint x="1040" y="423.33" />
              <mxPoint x="1040" y="403.33" />
            </Array>
          </mxGeometry>
        </mxCell>
        <mxCell id="BpjemMMK_G_cXn7MYBE9-46" value="&lt;font style=&quot;font-size: 13px;&quot;&gt;&amp;lt;&amp;lt;include&amp;gt;&amp;gt;&lt;/font&gt;" style="edgeLabel;html=1;align=center;verticalAlign=middle;resizable=0;points=[];fontSize=20;fontFamily=Architects Daughter;fontColor=#1A1A1A;labelBackgroundColor=none;" vertex="1" connectable="0" parent="BpjemMMK_G_cXn7MYBE9-45">
          <mxGeometry x="0.0889" y="1" relative="1" as="geometry">
            <mxPoint x="27" y="-11" as="offset" />
          </mxGeometry>
        </mxCell>
        <mxCell id="BpjemMMK_G_cXn7MYBE9-16" value="Login" style="ellipse;whiteSpace=wrap;html=1;sketch=1;hachureGap=4;jiggle=2;curveFitting=1;strokeColor=#D0CEE2;fontFamily=Architects Daughter;fontSource=https%3A%2F%2Ffonts.googleapis.com%2Fcss%3Ffamily%3DArchitects%2BDaughter;fontSize=20;fontColor=#1A1A1A;fillColor=#5D7F99;" vertex="1" parent="1">
          <mxGeometry x="810" y="378.33" width="170" height="90" as="geometry" />
        </mxCell>
        <mxCell id="BpjemMMK_G_cXn7MYBE9-75" style="edgeStyle=orthogonalEdgeStyle;rounded=0;sketch=1;hachureGap=4;jiggle=2;curveFitting=1;orthogonalLoop=1;jettySize=auto;html=1;entryX=1;entryY=0.5;entryDx=0;entryDy=0;strokeColor=#736CA8;fontFamily=Architects Daughter;fontSource=https%3A%2F%2Ffonts.googleapis.com%2Fcss%3Ffamily%3DArchitects%2BDaughter;fontSize=16;fontColor=#1A1A1A;endArrow=none;endFill=0;" edge="1" parent="1" source="BpjemMMK_G_cXn7MYBE9-18" target="BpjemMMK_G_cXn7MYBE9-71">
          <mxGeometry relative="1" as="geometry" />
        </mxCell>
        <mxCell id="BpjemMMK_G_cXn7MYBE9-18" value="Ai interactive&lt;br&gt;&amp;nbsp;Polls" style="shape=umlActor;verticalLabelPosition=bottom;verticalAlign=top;html=1;outlineConnect=0;sketch=1;hachureGap=4;jiggle=2;curveFitting=1;strokeColor=#D0CEE2;fontFamily=Architects Daughter;fontSource=https%3A%2F%2Ffonts.googleapis.com%2Fcss%3Ffamily%3DArchitects%2BDaughter;fontSize=20;fontColor=#1A1A1A;fillColor=#5D7F99;" vertex="1" parent="1">
          <mxGeometry x="1320" y="713.33" width="90" height="160" as="geometry" />
        </mxCell>
        <mxCell id="BpjemMMK_G_cXn7MYBE9-67" style="edgeStyle=orthogonalEdgeStyle;rounded=0;sketch=1;hachureGap=4;jiggle=2;curveFitting=1;orthogonalLoop=1;jettySize=auto;html=1;exitX=0;exitY=0.3333333333333333;exitDx=0;exitDy=0;exitPerimeter=0;entryX=1;entryY=0.5;entryDx=0;entryDy=0;strokeColor=#736CA8;fontFamily=Architects Daughter;fontSource=https%3A%2F%2Ffonts.googleapis.com%2Fcss%3Ffamily%3DArchitects%2BDaughter;fontSize=16;fontColor=#1A1A1A;endArrow=none;endFill=0;" edge="1" parent="1" source="BpjemMMK_G_cXn7MYBE9-25" target="BpjemMMK_G_cXn7MYBE9-66">
          <mxGeometry relative="1" as="geometry" />
        </mxCell>
        <mxCell id="BpjemMMK_G_cXn7MYBE9-25" value="Backend Server&amp;nbsp;&lt;br&gt;with ML Model" style="shape=umlActor;verticalLabelPosition=bottom;verticalAlign=top;html=1;outlineConnect=0;sketch=1;hachureGap=4;jiggle=2;curveFitting=1;strokeColor=#D0CEE2;fontFamily=Architects Daughter;fontSource=https%3A%2F%2Ffonts.googleapis.com%2Fcss%3Ffamily%3DArchitects%2BDaughter;fontSize=20;fontColor=#1A1A1A;fillColor=#5D7F99;" vertex="1" parent="1">
          <mxGeometry x="1320" y="443.33" width="90" height="160" as="geometry" />
        </mxCell>
        <mxCell id="BpjemMMK_G_cXn7MYBE9-62" style="edgeStyle=orthogonalEdgeStyle;rounded=0;sketch=1;hachureGap=4;jiggle=2;curveFitting=1;orthogonalLoop=1;jettySize=auto;html=1;strokeColor=#736CA8;fontFamily=Architects Daughter;fontSource=https%3A%2F%2Ffonts.googleapis.com%2Fcss%3Ffamily%3DArchitects%2BDaughter;fontSize=16;fontColor=#1A1A1A;endArrow=none;endFill=0;" edge="1" parent="1" source="BpjemMMK_G_cXn7MYBE9-26" target="BpjemMMK_G_cXn7MYBE9-53">
          <mxGeometry relative="1" as="geometry" />
        </mxCell>
        <mxCell id="BpjemMMK_G_cXn7MYBE9-65" style="edgeStyle=orthogonalEdgeStyle;rounded=0;sketch=1;hachureGap=4;jiggle=2;curveFitting=1;orthogonalLoop=1;jettySize=auto;html=1;strokeColor=#736CA8;fontFamily=Architects Daughter;fontSource=https%3A%2F%2Ffonts.googleapis.com%2Fcss%3Ffamily%3DArchitects%2BDaughter;fontSize=16;fontColor=#1A1A1A;" edge="1" parent="1" source="BpjemMMK_G_cXn7MYBE9-26">
          <mxGeometry relative="1" as="geometry">
            <mxPoint x="675" y="523.3299999999999" as="targetPoint" />
          </mxGeometry>
        </mxCell>
        <mxCell id="BpjemMMK_G_cXn7MYBE9-26" value="Administrator" style="shape=umlActor;verticalLabelPosition=bottom;verticalAlign=top;html=1;outlineConnect=0;sketch=1;hachureGap=4;jiggle=2;curveFitting=1;strokeColor=#D0CEE2;fontFamily=Architects Daughter;fontSource=https%3A%2F%2Ffonts.googleapis.com%2Fcss%3Ffamily%3DArchitects%2BDaughter;fontSize=20;fontColor=#1A1A1A;fillColor=#5D7F99;" vertex="1" parent="1">
          <mxGeometry x="630" y="293.33" width="90" height="160" as="geometry" />
        </mxCell>
        <mxCell id="BpjemMMK_G_cXn7MYBE9-27" value="upload photo&lt;br style=&quot;border-color: var(--border-color);&quot;&gt;for Model" style="ellipse;whiteSpace=wrap;html=1;sketch=1;hachureGap=4;jiggle=2;curveFitting=1;strokeColor=#D0CEE2;fontFamily=Architects Daughter;fontSource=https%3A%2F%2Ffonts.googleapis.com%2Fcss%3Ffamily%3DArchitects%2BDaughter;fontSize=20;fontColor=#1A1A1A;fillColor=#5D7F99;" vertex="1" parent="1">
          <mxGeometry x="810" y="478.33" width="170" height="90" as="geometry" />
        </mxCell>
        <mxCell id="BpjemMMK_G_cXn7MYBE9-79" style="edgeStyle=orthogonalEdgeStyle;rounded=0;sketch=1;hachureGap=4;jiggle=2;curveFitting=1;orthogonalLoop=1;jettySize=auto;html=1;exitX=1;exitY=0.5;exitDx=0;exitDy=0;strokeColor=#736CA8;fontFamily=Architects Daughter;fontSource=https%3A%2F%2Ffonts.googleapis.com%2Fcss%3Ffamily%3DArchitects%2BDaughter;fontSize=16;fontColor=#1A1A1A;endArrow=none;endFill=0;" edge="1" parent="1" source="BpjemMMK_G_cXn7MYBE9-28">
          <mxGeometry relative="1" as="geometry">
            <mxPoint x="1279.9999999999998" y="613.33" as="targetPoint" />
          </mxGeometry>
        </mxCell>
        <mxCell id="BpjemMMK_G_cXn7MYBE9-28" value="(crud operations) for posts" style="ellipse;whiteSpace=wrap;html=1;sketch=1;hachureGap=4;jiggle=2;curveFitting=1;strokeColor=#D0CEE2;fontFamily=Architects Daughter;fontSource=https%3A%2F%2Ffonts.googleapis.com%2Fcss%3Ffamily%3DArchitects%2BDaughter;fontSize=20;fontColor=#1A1A1A;fillColor=#5D7F99;" vertex="1" parent="1">
          <mxGeometry x="810" y="678.33" width="170" height="90" as="geometry" />
        </mxCell>
        <mxCell id="BpjemMMK_G_cXn7MYBE9-76" style="edgeStyle=orthogonalEdgeStyle;rounded=0;sketch=1;hachureGap=4;jiggle=2;curveFitting=1;orthogonalLoop=1;jettySize=auto;html=1;exitX=1;exitY=0.5;exitDx=0;exitDy=0;strokeColor=#736CA8;fontFamily=Architects Daughter;fontSource=https%3A%2F%2Ffonts.googleapis.com%2Fcss%3Ffamily%3DArchitects%2BDaughter;fontSize=16;fontColor=#1A1A1A;endArrow=none;endFill=0;" edge="1" parent="1" source="BpjemMMK_G_cXn7MYBE9-30">
          <mxGeometry relative="1" as="geometry">
            <mxPoint x="1280" y="533.3299999999999" as="targetPoint" />
            <Array as="points">
              <mxPoint x="1280" y="623.33" />
            </Array>
          </mxGeometry>
        </mxCell>
        <mxCell id="BpjemMMK_G_cXn7MYBE9-30" value="(crud operations) for comments" style="ellipse;whiteSpace=wrap;html=1;sketch=1;hachureGap=4;jiggle=2;curveFitting=1;strokeColor=#D0CEE2;fontFamily=Architects Daughter;fontSource=https%3A%2F%2Ffonts.googleapis.com%2Fcss%3Ffamily%3DArchitects%2BDaughter;fontSize=20;fontColor=#1A1A1A;fillColor=#5D7F99;" vertex="1" parent="1">
          <mxGeometry x="810" y="578.33" width="170" height="90" as="geometry" />
        </mxCell>
        <mxCell id="BpjemMMK_G_cXn7MYBE9-31" value="Answer Poll" style="ellipse;whiteSpace=wrap;html=1;sketch=1;hachureGap=4;jiggle=2;curveFitting=1;strokeColor=#D0CEE2;fontFamily=Architects Daughter;fontSource=https%3A%2F%2Ffonts.googleapis.com%2Fcss%3Ffamily%3DArchitects%2BDaughter;fontSize=20;fontColor=#1A1A1A;fillColor=#5D7F99;" vertex="1" parent="1">
          <mxGeometry x="810" y="778.33" width="170" height="90" as="geometry" />
        </mxCell>
        <mxCell id="BpjemMMK_G_cXn7MYBE9-32" value="Validate Data" style="ellipse;whiteSpace=wrap;html=1;sketch=1;hachureGap=4;jiggle=2;curveFitting=1;strokeColor=#D0CEE2;fontFamily=Architects Daughter;fontSource=https%3A%2F%2Ffonts.googleapis.com%2Fcss%3Ffamily%3DArchitects%2BDaughter;fontSize=20;fontColor=#1A1A1A;fillColor=#5D7F99;" vertex="1" parent="1">
          <mxGeometry x="800" y="873.33" width="170" height="90" as="geometry" />
        </mxCell>
        <mxCell id="BpjemMMK_G_cXn7MYBE9-38" style="edgeStyle=orthogonalEdgeStyle;rounded=0;sketch=1;hachureGap=4;jiggle=2;curveFitting=1;orthogonalLoop=1;jettySize=auto;html=1;exitX=0.5;exitY=0.5;exitDx=0;exitDy=0;exitPerimeter=0;entryX=-0.006;entryY=0.622;entryDx=0;entryDy=0;entryPerimeter=0;strokeColor=#736CA8;fontFamily=Architects Daughter;fontSource=https%3A%2F%2Ffonts.googleapis.com%2Fcss%3Ffamily%3DArchitects%2BDaughter;fontSize=16;fontColor=#1A1A1A;endArrow=none;endFill=0;" edge="1" parent="1" source="BpjemMMK_G_cXn7MYBE9-7" target="BpjemMMK_G_cXn7MYBE9-31">
          <mxGeometry relative="1" as="geometry" />
        </mxCell>
        <mxCell id="BpjemMMK_G_cXn7MYBE9-43" value="Verify&lt;br&gt;Login" style="ellipse;whiteSpace=wrap;html=1;sketch=1;hachureGap=4;jiggle=2;curveFitting=1;strokeColor=#D0CEE2;fontFamily=Architects Daughter;fontSource=https%3A%2F%2Ffonts.googleapis.com%2Fcss%3Ffamily%3DArchitects%2BDaughter;fontSize=20;fontColor=#1A1A1A;fillColor=#5D7F99;" vertex="1" parent="1">
          <mxGeometry x="1110" y="371.67" width="94.44" height="50" as="geometry" />
        </mxCell>
        <mxCell id="BpjemMMK_G_cXn7MYBE9-44" value="Display Error" style="ellipse;whiteSpace=wrap;html=1;sketch=1;hachureGap=4;jiggle=2;curveFitting=1;strokeColor=#D0CEE2;fontFamily=Architects Daughter;fontSource=https%3A%2F%2Ffonts.googleapis.com%2Fcss%3Ffamily%3DArchitects%2BDaughter;fontSize=20;fontColor=#1A1A1A;fillColor=#5D7F99;" vertex="1" parent="1">
          <mxGeometry x="1110" y="428.33" width="94.44" height="50" as="geometry" />
        </mxCell>
        <mxCell id="BpjemMMK_G_cXn7MYBE9-47" style="edgeStyle=orthogonalEdgeStyle;rounded=0;sketch=1;hachureGap=4;jiggle=2;curveFitting=1;orthogonalLoop=1;jettySize=auto;html=1;strokeColor=#736CA8;fontFamily=Architects Daughter;fontSource=https%3A%2F%2Ffonts.googleapis.com%2Fcss%3Ffamily%3DArchitects%2BDaughter;fontSize=16;fontColor=#1A1A1A;dashed=1;dashPattern=8 8;entryX=0;entryY=0.5;entryDx=0;entryDy=0;" edge="1" parent="1" target="BpjemMMK_G_cXn7MYBE9-44">
          <mxGeometry relative="1" as="geometry">
            <mxPoint x="980" y="423.33" as="sourcePoint" />
            <mxPoint x="1120" y="315.33" as="targetPoint" />
            <Array as="points">
              <mxPoint x="980" y="433.33" />
              <mxPoint x="1040" y="433.33" />
              <mxPoint x="1040" y="453.33" />
            </Array>
          </mxGeometry>
        </mxCell>
        <mxCell id="BpjemMMK_G_cXn7MYBE9-48" value="&lt;font style=&quot;font-size: 13px;&quot;&gt;&amp;lt;&amp;lt;extend&amp;gt;&amp;gt;&lt;/font&gt;" style="edgeLabel;html=1;align=center;verticalAlign=middle;resizable=0;points=[];fontSize=20;fontFamily=Architects Daughter;fontColor=#1A1A1A;labelBackgroundColor=none;" vertex="1" connectable="0" parent="BpjemMMK_G_cXn7MYBE9-47">
          <mxGeometry x="0.0889" y="1" relative="1" as="geometry">
            <mxPoint x="29" y="13" as="offset" />
          </mxGeometry>
        </mxCell>
        <mxCell id="BpjemMMK_G_cXn7MYBE9-49" style="edgeStyle=orthogonalEdgeStyle;rounded=0;sketch=1;hachureGap=4;jiggle=2;curveFitting=1;orthogonalLoop=1;jettySize=auto;html=1;entryX=0;entryY=0.3333333333333333;entryDx=0;entryDy=0;entryPerimeter=0;strokeColor=#736CA8;fontFamily=Architects Daughter;fontSource=https%3A%2F%2Ffonts.googleapis.com%2Fcss%3Ffamily%3DArchitects%2BDaughter;fontSize=16;fontColor=#1A1A1A;endArrow=none;endFill=0;" edge="1" parent="1" source="BpjemMMK_G_cXn7MYBE9-43" target="BpjemMMK_G_cXn7MYBE9-25">
          <mxGeometry relative="1" as="geometry" />
        </mxCell>
        <mxCell id="BpjemMMK_G_cXn7MYBE9-50" style="edgeStyle=orthogonalEdgeStyle;rounded=0;sketch=1;hachureGap=4;jiggle=2;curveFitting=1;orthogonalLoop=1;jettySize=auto;html=1;exitX=1;exitY=0.5;exitDx=0;exitDy=0;entryX=0;entryY=0.3333333333333333;entryDx=0;entryDy=0;entryPerimeter=0;strokeColor=#736CA8;fontFamily=Architects Daughter;fontSource=https%3A%2F%2Ffonts.googleapis.com%2Fcss%3Ffamily%3DArchitects%2BDaughter;fontSize=16;fontColor=#1A1A1A;endArrow=none;endFill=0;" edge="1" parent="1" source="BpjemMMK_G_cXn7MYBE9-44" target="BpjemMMK_G_cXn7MYBE9-25">
          <mxGeometry relative="1" as="geometry" />
        </mxCell>
        <mxCell id="BpjemMMK_G_cXn7MYBE9-53" value="System Maintenance" style="ellipse;whiteSpace=wrap;html=1;sketch=1;hachureGap=4;jiggle=2;curveFitting=1;strokeColor=#D0CEE2;fontFamily=Architects Daughter;fontSource=https%3A%2F%2Ffonts.googleapis.com%2Fcss%3Ffamily%3DArchitects%2BDaughter;fontSize=20;fontColor=#1A1A1A;fillColor=#5D7F99;" vertex="1" parent="1">
          <mxGeometry x="810" y="273.33" width="170" height="90" as="geometry" />
        </mxCell>
        <mxCell id="BpjemMMK_G_cXn7MYBE9-59" style="edgeStyle=orthogonalEdgeStyle;rounded=0;sketch=1;hachureGap=4;jiggle=2;curveFitting=1;orthogonalLoop=1;jettySize=auto;html=1;strokeColor=#736CA8;fontFamily=Architects Daughter;fontSource=https%3A%2F%2Ffonts.googleapis.com%2Fcss%3Ffamily%3DArchitects%2BDaughter;fontSize=16;fontColor=#1A1A1A;" edge="1" parent="1" source="BpjemMMK_G_cXn7MYBE9-54">
          <mxGeometry relative="1" as="geometry">
            <mxPoint x="675" y="733.33" as="targetPoint" />
          </mxGeometry>
        </mxCell>
        <mxCell id="BpjemMMK_G_cXn7MYBE9-61" style="edgeStyle=orthogonalEdgeStyle;rounded=0;sketch=1;hachureGap=4;jiggle=2;curveFitting=1;orthogonalLoop=1;jettySize=auto;html=1;strokeColor=#736CA8;fontFamily=Architects Daughter;fontSource=https%3A%2F%2Ffonts.googleapis.com%2Fcss%3Ffamily%3DArchitects%2BDaughter;fontSize=16;fontColor=#1A1A1A;endArrow=none;endFill=0;" edge="1" parent="1" source="BpjemMMK_G_cXn7MYBE9-54" target="BpjemMMK_G_cXn7MYBE9-32">
          <mxGeometry relative="1" as="geometry">
            <Array as="points">
              <mxPoint x="730" y="843.33" />
              <mxPoint x="730" y="918.33" />
            </Array>
          </mxGeometry>
        </mxCell>
        <mxCell id="BpjemMMK_G_cXn7MYBE9-54" value="HealthCare &lt;br&gt;Provider" style="shape=umlActor;verticalLabelPosition=bottom;verticalAlign=top;html=1;outlineConnect=0;sketch=1;hachureGap=4;jiggle=2;curveFitting=1;strokeColor=#D0CEE2;fontFamily=Architects Daughter;fontSource=https%3A%2F%2Ffonts.googleapis.com%2Fcss%3Ffamily%3DArchitects%2BDaughter;fontSize=20;fontColor=#1A1A1A;fillColor=#5D7F99;" vertex="1" parent="1">
          <mxGeometry x="630" y="763.33" width="90" height="160" as="geometry" />
        </mxCell>
        <mxCell id="BpjemMMK_G_cXn7MYBE9-66" value="Detect Cancer&lt;br&gt;then Response" style="ellipse;whiteSpace=wrap;html=1;sketch=1;hachureGap=4;jiggle=2;curveFitting=1;strokeColor=#D0CEE2;fontFamily=Architects Daughter;fontSource=https%3A%2F%2Ffonts.googleapis.com%2Fcss%3Ffamily%3DArchitects%2BDaughter;fontSize=20;fontColor=#1A1A1A;fillColor=#5D7F99;" vertex="1" parent="1">
          <mxGeometry x="1072.22" y="483.33" width="170" height="90" as="geometry" />
        </mxCell>
        <mxCell id="BpjemMMK_G_cXn7MYBE9-69" style="edgeStyle=orthogonalEdgeStyle;rounded=0;sketch=1;hachureGap=4;jiggle=2;curveFitting=1;orthogonalLoop=1;jettySize=auto;html=1;exitX=1;exitY=0.5;exitDx=0;exitDy=0;strokeColor=#736CA8;fontFamily=Architects Daughter;fontSource=https%3A%2F%2Ffonts.googleapis.com%2Fcss%3Ffamily%3DArchitects%2BDaughter;fontSize=16;fontColor=#1A1A1A;dashed=1;dashPattern=8 8;" edge="1" parent="1" source="BpjemMMK_G_cXn7MYBE9-27">
          <mxGeometry relative="1" as="geometry">
            <mxPoint x="939" y="543.3299999999999" as="sourcePoint" />
            <mxPoint x="1071" y="523.3299999999999" as="targetPoint" />
            <Array as="points">
              <mxPoint x="990" y="523.3299999999999" />
              <mxPoint x="990" y="523.3299999999999" />
            </Array>
          </mxGeometry>
        </mxCell>
        <mxCell id="BpjemMMK_G_cXn7MYBE9-70" value="&lt;font style=&quot;font-size: 13px;&quot;&gt;&amp;lt;&amp;lt;include&amp;gt;&amp;gt;&lt;/font&gt;" style="edgeLabel;html=1;align=center;verticalAlign=middle;resizable=0;points=[];fontSize=20;fontFamily=Architects Daughter;fontColor=#1A1A1A;labelBackgroundColor=none;" vertex="1" connectable="0" parent="BpjemMMK_G_cXn7MYBE9-69">
          <mxGeometry x="0.0889" y="1" relative="1" as="geometry">
            <mxPoint y="-9" as="offset" />
          </mxGeometry>
        </mxCell>
        <mxCell id="BpjemMMK_G_cXn7MYBE9-71" value="Generate&amp;nbsp;&lt;br&gt;insights" style="ellipse;whiteSpace=wrap;html=1;sketch=1;hachureGap=4;jiggle=2;curveFitting=1;strokeColor=#D0CEE2;fontFamily=Architects Daughter;fontSource=https%3A%2F%2Ffonts.googleapis.com%2Fcss%3Ffamily%3DArchitects%2BDaughter;fontSize=20;fontColor=#1A1A1A;fillColor=#5D7F99;" vertex="1" parent="1">
          <mxGeometry x="1072.22" y="778.33" width="170" height="90" as="geometry" />
        </mxCell>
        <mxCell id="BpjemMMK_G_cXn7MYBE9-73" style="edgeStyle=orthogonalEdgeStyle;rounded=0;sketch=1;hachureGap=4;jiggle=2;curveFitting=1;orthogonalLoop=1;jettySize=auto;html=1;exitX=1;exitY=0.5;exitDx=0;exitDy=0;strokeColor=#736CA8;fontFamily=Architects Daughter;fontSource=https%3A%2F%2Ffonts.googleapis.com%2Fcss%3Ffamily%3DArchitects%2BDaughter;fontSize=16;fontColor=#1A1A1A;dashed=1;dashPattern=8 8;" edge="1" parent="1">
          <mxGeometry relative="1" as="geometry">
            <mxPoint x="980" y="822.99" as="sourcePoint" />
            <mxPoint x="1071" y="822.99" as="targetPoint" />
            <Array as="points">
              <mxPoint x="990" y="822.99" />
              <mxPoint x="990" y="822.99" />
            </Array>
          </mxGeometry>
        </mxCell>
        <mxCell id="BpjemMMK_G_cXn7MYBE9-74" value="&lt;font style=&quot;font-size: 13px;&quot;&gt;&amp;lt;&amp;lt;include&amp;gt;&amp;gt;&lt;/font&gt;" style="edgeLabel;html=1;align=center;verticalAlign=middle;resizable=0;points=[];fontSize=20;fontFamily=Architects Daughter;fontColor=#1A1A1A;labelBackgroundColor=none;" vertex="1" connectable="0" parent="BpjemMMK_G_cXn7MYBE9-73">
          <mxGeometry x="0.0889" y="1" relative="1" as="geometry">
            <mxPoint y="-9" as="offset" />
          </mxGeometry>
        </mxCell>
      </root>
    </mxGraphModel>
  </diagram>
</mxfile>
